<svg id="Layer_1" enable-background="new 0 0 512 512" height="512" viewBox="0 0 512 512" width="512" xmlns="http://www.w3.org/2000/svg"><g><circle cx="276.395" cy="51.762" fill="#ffe1d7" r="51.776"/><path d="m449.006 109.878c-14.239-28.563-43.493-46.607-75.421-46.607-22.695 0-44.528 9.026-60.579 25.103s-25.112 37.875-25.112 60.604v35.104h-32.259c-29.906 0-54.137 24.294-54.035 54.224.028 8.21 6.79 14.812 15 14.812h124.726c8.284 0 15-6.716 15-15v-88.553l69.466 138.071-.081 209.359c-.003 8.286 6.713 15.006 15 15.006h56.289c8.284 0 15-6.716 15-15v-254.06c0-4.658-1.084-9.251-3.168-13.417z" fill="#08475e"/><g><path d="m147.933 124.584c-25.989 0-47.133 21.144-47.133 47.133 0 8.284 6.716 15 15 15s15-6.716 15-15c0-9.447 7.686-17.133 17.133-17.133s17.133 7.686 17.133 17.133c0 8.284 6.716 15 15 15s15-6.716 15-15c.001-25.989-21.143-47.133-47.133-47.133z" fill="#3291ff"/><path d="m115.8 283.118c-8.284 0-15-6.716-15-15v-96.4c0-9.447-7.686-17.133-17.133-17.133s-17.133 7.679-17.133 17.117c0 8.284-6.716 15.008-15 15.008s-15-6.708-15-14.992c0-25.997 21.144-47.133 47.133-47.133s47.133 21.144 47.133 47.133v96.4c0 8.284-6.716 15-15 15z" fill="#50c8ff"/></g><path d="m168.4 379.518h-105.2c-34.849 0-63.2-28.351-63.2-63.2v-48.2c0-8.284 6.716-15 15-15h201.6c8.284 0 15 6.716 15 15v48.2c0 34.848-28.351 63.2-63.2 63.2z" fill="#f4f1f1"/><path d="m216.6 253.118h-100.8v126.4h52.6c34.849 0 63.2-28.351 63.2-63.2v-48.2c0-8.285-6.716-15-15-15z" fill="#e7dfdd"/><path d="m449.006 109.878c-14.239-28.563-43.493-46.607-75.421-46.607-5.839 0-11.618.608-17.259 1.769v84.525l69.466 138.071-.081 209.359c-.003 8.286 6.713 15.006 15 15.006h56.289c8.284 0 15-6.716 15-15v-254.06c0-4.658-1.084-9.251-3.167-13.417z" fill="#05303d"/></g></svg>